<svg version="1.1" id="Layer_1" xmlns="http://www.w3.org/2000/svg" xmlns:xlink="http://www.w3.org/1999/xlink" x="0px" y="0px"
	 width="100%" viewBox="0 0 1080 1080" enable-background="new 0 0 1080 1080" xml:space="preserve">

<path fill="#b8a1c7" opacity="1.000000" stroke="none" 
	d="
M0.999997,497.468658 
	C1.654801,495.592102 2.678562,494.241913 2.909059,492.767670 
	C6.344969,470.791840 8.807525,448.623901 13.212044,426.847656 
	C22.467260,381.089294 38.615364,337.613831 60.014458,296.166718 
	C76.152840,264.908875 95.122177,235.388901 117.465813,208.167084 
	C126.842590,196.743149 136.805374,185.789612 146.724213,174.823441 
	C167.203323,152.181961 190.076691,132.074158 214.719162,114.208740 
	C232.862244,101.055275 251.823364,88.877579 271.209717,77.625793 
	C303.975800,58.608463 338.689758,43.685154 374.944702,32.569599 
	C402.640503,24.078243 430.877106,18.094271 459.560303,13.749597 
	C496.704102,8.123396 534.014771,9.672877 571.225342,10.381747 
	C597.941895,10.890703 624.345215,16.176815 650.508301,22.034023 
	C697.600037,32.576591 742.243774,49.655540 784.650574,72.455536 
	C816.654663,89.662498 846.878052,109.709839 874.216309,133.769867 
	C888.441284,146.289093 902.507690,159.057297 915.817871,172.530853 
	C935.234497,192.185760 952.464783,213.736176 968.286316,236.424835 
	C991.140198,269.198273 1009.934875,304.176331 1024.954712,341.127289 
	C1040.858521,380.252655 1052.292725,420.724335 1057.906616,462.628815 
	C1060.439209,481.531769 1061.583984,500.634308 1062.940063,519.676025 
	C1063.719116,530.615051 1064.282959,541.637451 1063.866455,552.581299 
	C1062.410156,590.849976 1058.012817,628.755310 1048.841675,666.038818 
	C1040.630249,699.420715 1029.329468,731.671570 1015.098755,762.964294 
	C996.109070,804.721802 971.970459,843.312378 942.623047,878.418030 
	C926.753601,897.401184 909.654602,915.551270 891.606201,932.473022 
	C863.406250,958.912598 832.178345,981.563354 798.546875,1000.823669 
	C762.872070,1021.254272 725.542236,1037.837036 686.197754,1049.761841 
	C658.150146,1058.262695 629.654541,1064.912109 600.465393,1068.002319 
	C583.959229,1069.749756 567.366333,1070.668213 550.819519,1072.044189 
	C521.485046,1074.483032 492.394043,1071.664917 463.325867,1068.156738 
	C426.183624,1063.674072 390.042877,1054.865112 354.846832,1042.349243 
	C323.436157,1031.179565 293.246826,1017.308289 264.432648,1000.393860 
	C239.983032,986.041504 216.744415,969.973022 194.879852,952.032288 
	C175.332321,935.992798 157.099152,918.494263 140.017715,899.745361 
	C121.260201,879.156921 104.145584,857.353210 88.818268,834.164001 
	C57.181061,786.299072 34.091877,734.544128 19.007471,679.184692 
	C11.384720,651.209412 6.572260,622.732605 3.112202,593.991028 
	C2.724306,590.768921 2.162355,587.567688 1.340560,584.178406 
	C1.000000,555.312439 1.000000,526.624878 0.999997,497.468658 
M497.024933,82.491615 
	C472.778046,84.302887 448.856110,88.166626 425.199738,93.760178 
	C384.129700,103.471207 345.280792,118.824196 308.362823,139.239578 
	C270.540466,160.155075 236.694397,186.321960 206.035843,216.630783 
	C197.069809,225.494553 189.001617,235.279068 180.681732,244.781494 
	C159.098999,269.432037 141.271622,296.691193 125.857445,325.499329 
	C106.279411,362.089447 92.234001,400.798126 83.135208,441.290955 
	C76.077164,472.701691 72.319878,504.529816 72.121651,536.700500 
	C72.036774,550.474243 72.743645,564.309814 74.079430,578.020935 
	C75.720299,594.863647 77.736267,611.725403 80.762123,628.365845 
	C86.795319,661.544861 97.165550,693.439575 110.535988,724.431213 
	C124.189026,756.077759 141.506134,785.550171 161.819931,813.279480 
	C180.853455,839.261047 202.218307,863.267517 226.813980,884.079407 
	C243.283539,898.015259 260.238983,911.548096 278.048492,923.689636 
	C305.886292,942.667969 335.937164,957.699341 367.447083,969.848572 
	C412.367676,987.168579 458.891449,997.247559 506.832703,999.729675 
	C538.718872,1001.380554 570.657471,1000.204163 602.370544,995.134521 
	C646.529602,988.075134 688.906860,975.347351 729.313843,956.256775 
	C759.192627,942.140320 787.048767,924.700134 813.299866,904.562683 
	C841.024414,883.294983 865.837952,859.072571 888.021851,832.204285 
	C910.442627,805.049255 929.387085,775.504639 944.953064,743.914856 
	C960.299438,712.770691 971.785522,680.183899 979.968750,646.416443 
	C986.408875,619.842163 990.447754,592.877258 991.729065,565.639648 
	C992.595459,547.221558 991.630798,528.695923 991.008484,510.234467 
	C990.120178,483.883209 985.482483,458.035431 979.284119,432.472626 
	C966.895874,381.382385 946.361511,333.769775 917.467163,289.842743 
	C896.172485,257.469208 871.929932,227.478088 842.470032,202.149353 
	C825.859741,187.868362 808.918335,173.800415 790.990479,161.260040 
	C754.223511,135.542023 714.033997,116.513954 671.228210,102.816643 
	C630.222534,89.695374 588.199402,82.853340 545.332703,81.183357 
	C529.570801,80.569321 513.735168,81.848190 497.024933,82.491615 
z"/>

<path fill="#b8a1c7" opacity="1.000000" stroke="none" 
	d="
M306.617859,294.609314 
	C328.144012,267.685272 355.082855,249.332199 388.523865,242.301224 
	C424.970154,234.638397 460.957123,236.716522 494.203033,255.276657 
	C536.840698,279.079926 562.869385,315.240723 570.934448,363.675018 
	C572.427917,372.643524 572.849304,381.870056 572.911133,390.983307 
	C573.137390,424.315002 573.095581,457.649689 572.902283,490.981781 
	C572.873779,495.908203 574.529785,498.236328 579.081970,500.204407 
	C601.920471,510.078247 614.642029,527.854004 617.995544,552.323853 
	C619.590637,563.962891 619.333313,563.999756 607.624451,563.999817 
	C519.291443,564.000244 430.958405,563.999512 342.625366,564.002869 
	C340.459076,564.002991 338.115967,563.543518 336.181122,564.224304 
	C334.564178,564.793213 333.063812,566.522339 332.194366,568.111206 
	C331.557343,569.275269 332.005524,571.044678 332.005432,572.544250 
	C332.001831,623.544067 331.999146,674.543945 332.005890,725.543762 
	C332.006989,733.983826 332.027283,734.000916 340.710663,734.001343 
	C430.210358,734.005981 519.710083,734.003784 609.209778,734.005981 
	C619.583801,734.006226 619.766663,734.594238 618.331421,744.814209 
	C613.408997,779.864929 580.967041,802.938538 548.629517,802.969604 
	C459.963226,803.054810 371.296783,803.022644 282.630432,802.978577 
	C265.209137,802.969910 249.645554,797.079956 237.624420,784.715271 
	C226.207779,772.972412 218.763748,759.020508 218.864258,741.525452 
	C219.215622,680.361023 219.066345,619.193176 218.964127,558.026917 
	C218.929672,537.411987 229.219406,522.243896 244.364761,509.978027 
	C257.924255,498.996399 273.907135,494.854645 291.389496,494.907959 
	C363.388580,495.127563 435.388733,495.001648 507.388489,494.996277 
	C515.979309,494.995636 515.997253,494.977295 515.999268,486.444611 
	C516.007019,454.278046 516.182068,422.110168 515.947632,389.945312 
	C515.742615,361.810303 506.156738,337.448151 484.883545,318.494446 
	C470.903290,306.038544 454.470093,298.441376 435.776337,295.953583 
	C406.416382,292.046356 380.892883,300.808838 359.871002,320.991028 
	C342.353149,337.809113 332.400970,358.853302 332.044006,383.639465 
	C331.813629,399.636139 331.876648,415.640137 332.065918,431.637817 
	C332.121857,436.367401 330.487549,438.131683 325.695801,438.066376 
	C310.698669,437.861908 295.695251,437.862000 280.698059,438.064667 
	C275.793701,438.130890 273.848114,436.494507 273.929413,431.430664 
	C274.159485,417.101074 273.699188,402.757355 274.071136,388.433746 
	C274.968262,353.887207 284.758453,322.319305 306.617859,294.609314 
z"/>
<path fill="#b8a1c7" opacity="1.000000" stroke="none" 
	d="
M586.377197,634.767456 
	C593.315857,657.350891 583.892883,679.835144 562.878418,689.163574 
	C545.125793,697.044128 525.069763,692.139221 512.043762,677.942078 
	C498.324738,662.989624 498.429260,637.144287 511.459290,621.165344 
	C522.466980,607.666504 545.021179,601.787292 561.353149,608.730591 
	C573.283020,613.802551 581.821045,622.076111 586.377197,634.767456 
z"/>
<path fill="#b8a1c7" opacity="1.000000" stroke="none" 
	d="
M393.385132,612.314331 
	C411.180573,602.706177 427.989349,603.148560 444.085052,615.398254 
	C460.135437,627.613586 465.035461,653.615417 454.457825,670.850342 
	C442.868774,689.733215 422.851074,697.725830 401.977173,690.335449 
	C370.980225,679.360962 365.058838,643.956055 382.144684,622.505615 
	C385.184296,618.689575 389.393616,615.805176 393.385132,612.314331 
z"/>
<path fill="#b8a1c7" opacity="1.000000" stroke="none" 
	d="
M716.998108,647.110352 
	C718.878540,668.869690 702.399902,686.831909 685.579285,691.343445 
	C662.816956,697.448669 638.085022,684.053406 631.693665,661.471619 
	C625.104126,638.189575 638.406250,614.534607 661.328186,607.633118 
	C686.445007,600.070740 711.365295,615.733643 716.324097,639.718994 
	C716.790283,641.974060 716.784119,644.326782 716.998108,647.110352 
z"/>
<path fill="#b8a1c7" opacity="1.000000" stroke="none" 
	d="
M824.362183,611.597900 
	C838.447693,620.096741 845.762634,632.338562 845.910645,648.360107 
	C846.063232,664.884277 839.219055,677.938782 824.819702,686.594116 
	C799.666992,701.713318 765.988403,688.303650 759.792114,658.651184 
	C753.580566,628.925659 776.543823,604.954102 803.638977,605.796936 
	C810.965210,606.024902 817.749878,607.694641 824.362183,611.597900 
z"/>
</svg>